<svg width="220" height="260" viewBox="0 0 220 260" fill="none" xmlns="http://www.w3.org/2000/svg">
  <defs>
    <linearGradient id="bgA" x1="32" y1="28" x2="184" y2="236" gradientUnits="userSpaceOnUse">
      <stop stop-color="#FFBAD6"/>
      <stop offset="1" stop-color="#FF6FA0"/>
    </linearGradient>
    <linearGradient id="visorA" x1="78" y1="110" x2="142" y2="146" gradientUnits="userSpaceOnUse">
      <stop stop-color="#F7FBFF"/>
      <stop offset="1" stop-color="#A9CFF8"/>
    </linearGradient>
  </defs>
  <rect x="8" y="8" width="204" height="244" rx="90" fill="url(#bgA)"/>
  <ellipse cx="110" cy="114" rx="62" ry="66" fill="#0E1A2D"/>
  <path d="M62 106C62 74 84 52 110 52C136 52 158 74 158 106V176C158 196 142 212 122 212H98C78 212 62 196 62 176V106Z" fill="#FF4E8C"/>
  <path d="M80 78C92 64 128 62 142 80" stroke="#FFD7E7" stroke-width="8" stroke-linecap="round"/>
  <rect x="74" y="102" width="74" height="38" rx="18" fill="url(#visorA)" stroke="#13243D" stroke-width="4"/>
  <circle cx="148" cy="74" r="14" fill="#FFE8F2" stroke="#FF95BC" stroke-width="3"/>
  <path d="M148 66V82M140 74H156" stroke="#FF5F94" stroke-width="3" stroke-linecap="round"/>
  <ellipse cx="110" cy="216" rx="48" ry="10" fill="#0B1220" fill-opacity="0.28"/>
</svg>
