<svg width="220" height="260" viewBox="0 0 220 260" fill="none" xmlns="http://www.w3.org/2000/svg">
  <defs>
    <linearGradient id="bgK" x1="26" y1="20" x2="194" y2="244" gradientUnits="userSpaceOnUse">
      <stop stop-color="#C7EDFF"/>
      <stop offset="1" stop-color="#67BFFF"/>
    </linearGradient>
    <linearGradient id="visorK" x1="74" y1="110" x2="146" y2="146" gradientUnits="userSpaceOnUse">
      <stop stop-color="#F9FDFF"/>
      <stop offset="1" stop-color="#9FD0FF"/>
    </linearGradient>
  </defs>
  <rect x="8" y="8" width="204" height="244" rx="90" fill="url(#bgK)"/>
  <ellipse cx="110" cy="112" rx="62" ry="66" fill="#0E1A2D"/>
  <path d="M62 106C62 74 84 52 110 52C136 52 158 74 158 106V176C158 196 142 212 122 212H98C78 212 62 196 62 176V106Z" fill="#46A8F4"/>
  <path d="M76 78C96 56 124 56 144 78" stroke="#DFF3FF" stroke-width="8" stroke-linecap="round"/>
  <rect x="74" y="102" width="74" height="38" rx="18" fill="url(#visorK)" stroke="#13243D" stroke-width="4"/>
  <path d="M108 210L118 198L128 210L118 222L108 210Z" fill="#BCE6FF" stroke="#46A8F4" stroke-width="3"/>
  <circle cx="62" cy="72" r="10" fill="#EAF8FF" stroke="#67BFFF" stroke-width="3"/>
  <path d="M58 72H66M62 68V76" stroke="#3F9BE5" stroke-width="3" stroke-linecap="round"/>
</svg>
