<svg width="220" height="260" viewBox="0 0 220 260" fill="none" xmlns="http://www.w3.org/2000/svg">
  <defs>
    <linearGradient id="bgM" x1="30" y1="16" x2="190" y2="248" gradientUnits="userSpaceOnUse">
      <stop stop-color="#FFD7EA"/>
      <stop offset="1" stop-color="#FF90C1"/>
    </linearGradient>
    <linearGradient id="visorM" x1="74" y1="110" x2="146" y2="146" gradientUnits="userSpaceOnUse">
      <stop stop-color="#F8FCFF"/>
      <stop offset="1" stop-color="#A1CCFF"/>
    </linearGradient>
  </defs>
  <rect x="8" y="8" width="204" height="244" rx="90" fill="url(#bgM)"/>
  <ellipse cx="110" cy="112" rx="62" ry="66" fill="#0E1A2D"/>
  <path d="M62 106C62 74 84 52 110 52C136 52 158 74 158 106V176C158 196 142 212 122 212H98C78 212 62 196 62 176V106Z" fill="#FF6FB1"/>
  <path d="M76 76C92 62 128 62 144 76" stroke="#FFE6F2" stroke-width="8" stroke-linecap="round"/>
  <rect x="74" y="102" width="74" height="38" rx="18" fill="url(#visorM)" stroke="#13243D" stroke-width="4"/>
  <path d="M46 152C46 138 58 126 72 126H80V184H72C58 184 46 172 46 158V152Z" fill="#E85C9E"/>
  <path d="M174 152C174 138 162 126 148 126H140V184H148C162 184 174 172 174 158V152Z" fill="#E85C9E"/>
  <circle cx="166" cy="70" r="10" fill="#FFEFF7" stroke="#FF93C0" stroke-width="3"/>
  <circle cx="176" cy="78" r="7" fill="#FFEFF7" stroke="#FF93C0" stroke-width="3"/>
</svg>
